HIERARCHY
ROOT Hips
{
	OFFSET -0.001795 -0.223333 0.028219
	CHANNELS 6 Xposition Yposition Zposition Zrotation Yrotation Xrotation
	JOINT LeftUpLeg
	{
		OFFSET 0.069520 -0.091406 -0.006815
		CHANNELS 3 Zrotation Yrotation Xrotation
		JOINT LeftLeg
		{
			OFFSET 0.034277 -0.375199 -0.004496
			CHANNELS 3 Zrotation Yrotation Xrotation
			JOINT LeftFoot
			{
				OFFSET -0.013596 -0.397961 -0.043693
				CHANNELS 3 Zrotation Yrotation Xrotation
				JOINT LeftToe
				{
					OFFSET 0.026358 -0.055791 0.119288
					CHANNELS 3 Zrotation Yrotation Xrotation
					End Site
					{
						OFFSET 0.000000 0.000000 0.000000
					}
				}
			}
		}
	}
	JOINT RightUpLeg
	{
		OFFSET -0.067670 -0.090522 -0.004320
		CHANNELS 3 Zrotation Yrotation Xrotation
		JOINT RightLeg
		{
			OFFSET -0.038290 -0.382569 -0.008850
			CHANNELS 3 Zrotation Yrotation Xrotation
			JOINT RightFoot
			{
				OFFSET 0.015774 -0.398415 -0.042312
				CHANNELS 3 Zrotation Yrotation Xrotation
				JOINT RightToe
				{
					OFFSET -0.025372 -0.048144 0.123348
					CHANNELS 3 Zrotation Yrotation Xrotation
					End Site
					{
						OFFSET 0.000000 0.000000 0.000000
					}
				}
			}
		}
	}
	JOINT Spine
	{
		OFFSET -0.002533 0.108963 -0.026696
		CHANNELS 3 Zrotation Yrotation Xrotation
		JOINT Spine1
		{
			OFFSET 0.005487 0.135180 0.001092
			CHANNELS 3 Zrotation Yrotation Xrotation
			JOINT Spine2
			{
				OFFSET 0.001457 0.052922 0.025425
				CHANNELS 3 Zrotation Yrotation Xrotation
				JOINT Neck
				{
					OFFSET -0.002778 0.213870 -0.042857
					CHANNELS 3 Zrotation Yrotation Xrotation
					JOINT Head
					{
						OFFSET 0.005152 0.064970 0.051349
						CHANNELS 3 Zrotation Yrotation Xrotation
						End Site
						{
							OFFSET 0.000000 0.000000 0.000000
						}
					}
				}
				JOINT LeftShoulder
				{
					OFFSET 0.078845 0.121749 -0.034090
					CHANNELS 3 Zrotation Yrotation Xrotation
					JOINT LeftArm
					{
						OFFSET 0.090977 0.030469 -0.008868
						CHANNELS 3 Zrotation Yrotation Xrotation
						JOINT LeftForeArm
						{
							OFFSET 0.259612 -0.012772 -0.027456
							CHANNELS 3 Zrotation Yrotation Xrotation
							JOINT LeftHand
							{
								OFFSET 0.249234 0.008986 -0.001171
								CHANNELS 3 Zrotation Yrotation Xrotation
								End Site
								{
									OFFSET 0.000000 0.000000 0.000000
								}
							}
						}
					}
				}
				JOINT RightShoulder
				{
					OFFSET -0.081759 0.118833 -0.038615
					CHANNELS 3 Zrotation Yrotation Xrotation
					JOINT RightArm
					{
						OFFSET -0.096012 0.032551 -0.009143
						CHANNELS 3 Zrotation Yrotation Xrotation
						JOINT RightForeArm
						{
							OFFSET -0.253742 -0.013329 -0.021401
							CHANNELS 3 Zrotation Yrotation Xrotation
							JOINT RightHand
							{
								OFFSET -0.255298 0.007772 -0.005559
								CHANNELS 3 Zrotation Yrotation Xrotation
								End Site
								{
									OFFSET 0.000000 0.000000 0.000000
								}
							}
						}
					}
				}
			}
		}
	}
}
MOTION
Frames: 11
Frame Time: 0.050000
-0.185354 0.930531 0.527776 -14.814676 -31.286934 -5.218797 20.215474 2.314249 4.812106 -3.265189 3.162584 26.802042 4.346589 9.614812 2.549740 0.000000 0.000000 0.000000 -5.865047 0.458588 5.136466 1.675353 2.898808 27.027216 1.501053 -8.075250 16.887602 0.000000 0.000000 0.000000 -8.851214 0.277873 4.252201 -21.671305 5.959296 -25.194638 0.528673 23.688654 20.941746 10.131275 -3.334929 -23.461962 0.000000 0.000000 0.000000 -16.848926 -1.775635 -1.526881 -23.812195 7.403266 -4.423156 130.100186 -79.590712 -119.519339 0.000000 0.000000 0.000000 -4.804823 -5.403396 -1.800170 8.452424 18.250861 -0.875898 -58.258581 38.643547 -17.977098 0.000000 0.000000 0.000000
-0.195052 0.933750 0.540593 -15.504028 -28.042796 -5.474781 21.984652 2.112566 6.485476 -3.347624 2.418063 24.494002 3.011385 6.865023 2.110472 0.000000 0.000000 0.000000 -6.085774 0.389817 4.395244 1.022407 2.088403 22.374724 3.245152 -5.264097 17.181604 0.000000 0.000000 0.000000 -9.273304 0.303972 5.079905 -21.476258 5.978032 -24.626853 0.423316 24.336826 20.745118 12.197525 -4.198058 -23.563340 0.000000 0.000000 0.000000 -18.007081 -1.615330 -2.434944 -22.419425 7.396669 -3.979104 92.879049 -80.565042 -82.436323 0.000000 0.000000 0.000000 -3.696511 -5.325402 -1.978690 5.686637 16.271134 -0.952325 -56.039406 39.148501 -16.811209 0.000000 0.000000 0.000000
-0.206653 0.937132 0.549745 -16.242858 -24.464049 -5.563946 23.501870 1.869346 6.404260 -3.265295 1.934432 23.780449 2.988798 6.890226 2.873811 0.000000 0.000000 0.000000 -4.901765 0.185323 3.656203 1.192930 1.691374 21.017597 1.890837 -7.225839 17.758825 0.000000 0.000000 0.000000 -9.906218 0.385726 6.263723 -21.592392 5.930739 -25.440838 1.440290 23.250181 22.133011 11.844385 -3.937228 -23.317580 0.000000 0.000000 0.000000 -17.519553 -1.450294 -2.633467 -23.677813 6.616835 -4.109823 60.682166 -76.417813 -48.919429 0.000000 0.000000 0.000000 -5.358712 -5.186779 -2.012727 6.488026 14.680212 -0.930444 -53.069343 41.085810 -16.336625 0.000000 0.000000 0.000000
-0.219772 0.939439 0.556693 -16.389192 -21.725775 -5.557311 24.230763 1.575856 6.660575 -2.531685 1.291194 22.411304 2.469802 5.896330 3.110714 0.000000 0.000000 0.000000 -4.984427 0.177549 2.483880 1.188213 1.396377 19.579007 1.217568 -7.170183 15.930135 0.000000 0.000000 0.000000 -10.527255 0.482118 7.331983 -20.219438 5.564650 -25.109812 0.410383 23.779127 21.923664 11.351189 -3.497728 -22.364518 0.000000 0.000000 0.000000 -15.940677 -1.820180 -2.616440 -25.328645 6.342829 -4.310186 44.609262 -73.516844 -34.211062 0.000000 0.000000 0.000000 -5.742272 -4.752693 -2.051086 6.654609 13.251162 -0.934124 -52.186225 43.498754 -16.503904 0.000000 0.000000 0.000000
-0.234305 0.941300 0.562904 -15.621721 -18.541004 -5.869427 24.274254 1.239560 6.265329 -1.385778 0.600254 21.295901 1.053566 3.379549 4.458969 0.000000 0.000000 0.000000 -4.935715 0.138954 2.179471 1.114609 1.188261 18.643026 0.672244 -7.239027 14.925023 0.000000 0.000000 0.000000 -11.095912 0.552416 8.243384 -20.886071 5.851127 -24.659269 -0.047994 22.453909 21.792095 10.292724 -2.791000 -22.148608 0.000000 0.000000 0.000000 -14.459964 -2.310623 -2.197883 -26.454920 5.584272 -4.389851 37.976470 -71.202654 -28.082831 0.000000 0.000000 0.000000 -6.002869 -3.328037 -1.651849 7.114658 10.317010 -0.953481 -51.524650 45.580174 -17.106945 0.000000 0.000000 0.000000
-0.250259 0.941945 0.568903 -14.626193 -16.471766 -6.340266 24.413839 0.987557 6.522949 -0.801317 0.208685 19.422239 -0.386250 1.491232 7.502712 0.000000 0.000000 0.000000 -4.885082 0.135078 1.472914 1.206069 1.080961 18.559795 1.960242 -4.574553 14.559983 0.000000 0.000000 0.000000 -11.975777 0.708404 9.583442 -19.969333 5.581931 -24.738674 -0.932719 22.988125 22.178427 9.052378 -1.759120 -22.098899 0.000000 0.000000 0.000000 -13.760936 -3.130555 -1.980892 -26.942078 4.449097 -4.236925 30.452416 -68.783740 -21.940693 0.000000 0.000000 0.000000 -6.303635 -3.024596 -1.713782 6.727880 7.732113 -0.956818 -49.735522 47.770207 -16.952349 0.000000 0.000000 0.000000
-0.267809 0.941253 0.574757 -13.020700 -15.217506 -6.607078 23.724858 0.817981 6.666937 -0.274782 -0.033814 18.196876 -1.374000 0.521969 10.063999 0.000000 0.000000 0.000000 -4.939908 0.136817 1.200987 0.728474 1.137321 18.377260 1.459829 -4.723498 13.299910 0.000000 0.000000 0.000000 -12.410631 0.797804 10.309655 -20.404521 5.790469 -24.311907 -2.179359 22.081489 21.643548 8.367632 -1.467019 -21.470509 0.000000 0.000000 0.000000 -13.993039 -2.950666 -2.095092 -26.515003 3.971598 -4.056378 27.041932 -67.893613 -19.145885 0.000000 0.000000 0.000000 -6.107527 -2.156520 -1.403294 6.757647 6.597985 -0.948799 -50.225325 47.889901 -17.355375 0.000000 0.000000 0.000000
-0.286990 0.940020 0.580256 -11.247076 -14.318557 -6.765507 22.760952 0.666353 7.143053 0.903802 -0.418290 16.721785 -3.096615 -1.680647 12.289399 0.000000 0.000000 0.000000 -5.066735 0.143037 1.062252 0.647757 1.033003 17.324715 1.608700 -4.512892 13.615960 0.000000 0.000000 0.000000 -12.196705 0.821780 10.920910 -20.533243 5.853655 -24.249253 -3.713994 22.220433 21.163978 8.227496 -1.355980 -20.994459 0.000000 0.000000 0.000000 -14.504082 -3.651315 -2.025745 -24.988139 4.224610 -3.758199 23.616609 -67.092297 -16.636739 0.000000 0.000000 0.000000 -6.246372 -1.961040 -1.397585 6.979183 5.677286 -0.966951 -49.996373 47.916595 -17.064307 0.000000 0.000000 0.000000
-0.306938 0.938056 0.585060 -9.878115 -13.753866 -6.773878 22.008250 0.601846 7.150817 1.655325 -0.640753 16.506214 -3.213975 -1.385002 13.643476 0.000000 0.000000 0.000000 -4.810599 0.122688 1.143402 0.930805 0.942836 17.241803 0.839943 -5.127829 12.045157 0.000000 0.000000 0.000000 -12.144680 0.859504 11.434554 -20.300175 5.800838 -24.137091 -4.666189 21.659869 20.798085 7.794373 -1.318709 -19.851681 0.000000 0.000000 0.000000 -15.789937 -3.720162 -2.233995 -23.858785 4.251849 -3.532186 22.948209 -66.073620 -15.704076 0.000000 0.000000 0.000000 -5.653765 -1.454628 -1.163545 6.234359 5.009171 -0.905475 -50.637111 46.189232 -16.772688 0.000000 0.000000 0.000000
-0.326786 0.937157 0.589302 -8.280353 -13.322003 -6.710393 21.074865 0.539428 7.338742 2.558240 -0.887674 16.086202 -3.264300 -2.069290 11.956886 0.000000 0.000000 0.000000 -3.987132 0.110140 0.618905 1.070526 0.953075 17.875739 0.283020 -4.285026 8.144481 0.000000 0.000000 0.000000 -11.577195 0.846603 11.974653 -20.823117 5.919742 -24.396055 -5.380948 21.184983 20.923562 7.170317 -1.001338 -19.544286 0.000000 0.000000 0.000000 -17.766409 -4.764698 -2.103119 -21.970565 5.433698 -3.340362 23.019768 -67.078985 -15.826007 0.000000 0.000000 0.000000 -6.211446 -1.039592 -1.069513 7.303111 4.921169 -0.999352 -51.875351 42.372297 -15.418872 0.000000 0.000000 0.000000
-0.346744 0.935576 0.594400 -6.871403 -13.422712 -6.904834 20.840051 0.525617 7.878025 2.868960 -0.969803 16.160791 -3.333466 -2.697802 10.632162 0.000000 0.000000 0.000000 -3.391194 0.123637 -0.012820 1.731629 0.863774 18.670617 0.480160 -1.153856 3.393086 0.000000 0.000000 0.000000 -10.554656 0.777041 12.647069 -21.768591 6.289831 -23.984759 -5.862610 19.428306 20.244307 6.457358 -1.121705 -17.611842 0.000000 0.000000 0.000000 -19.233818 -4.055480 -2.339232 -21.956360 6.603075 -3.558641 25.715826 -70.332956 -18.284538 0.000000 0.000000 0.000000 -4.743789 -0.371492 -0.625020 5.655720 6.060535 -0.861776 -54.808551 39.511770 -15.813096 0.000000 0.000000 0.000000
